<svg width="60" height="59" viewBox="0 0 60 59" fill="none" xmlns="http://www.w3.org/2000/svg">
<path fill-rule="evenodd" clip-rule="evenodd" d="M30.0253 3.69189C15.9491 3.69189 4.53809 15.1029 4.53809 29.1792C4.53809 43.2554 15.9491 54.6664 30.0253 54.6664C44.1016 54.6664 55.5126 43.2554 55.5126 29.1792C55.5126 15.1029 44.1016 3.69189 30.0253 3.69189ZM12.9478 26.6433L14.6999 24.8912C17.603 21.9881 22.3098 21.9881 25.2128 24.8912L37.4779 37.1562C33.6071 41.0269 27.3314 41.0269 23.4607 37.1562L12.9478 26.6433ZM32.2214 28.3954L33.9736 26.6433C36.3337 24.2831 39.8861 23.8417 42.6922 25.3192C43.9411 25.9768 45.3063 26.5379 46.7063 26.3578C46.7063 26.3578 45.6493 28.5575 44.7704 29.8424C43.0396 32.3728 39.23 35.404 39.23 35.404L32.2214 28.3954Z" fill="#24282C"/>
</svg>
