<?xml version="1.0" encoding="UTF-8"?>
<svg width="24px" height="24px" viewBox="0 0 24 24" version="1.1" xmlns="http://www.w3.org/2000/svg" xmlns:xlink="http://www.w3.org/1999/xlink">
    <!-- Generator: Sketch 64 (93537) - https://sketch.com -->
    <title>切片</title>
    <desc>Created with Sketch.</desc>
    <g id="页面-1" stroke="none" stroke-width="1" fill="none" fill-rule="evenodd">
        <g id="logo">
            <rect id="Rectangle-72-Copy-4" x="0" y="0" width="24" height="24"></rect>
            <g id="编组-2" transform="translate(1.500000, 4.380000)" fill-rule="nonzero">
                <g id="Group-125-Copy-4">
                    <path d="M19.578,6.912 C18.702,6.018 17.484,5.454 16.128,5.454 C14.958,5.454 13.944,5.862 13.062,6.582 C12.678,6.894 12.276,7.272 11.766,7.764 C11.514,8.01 4.212,15.12 4.212,15.12 C4.596,15.174 5.124,15.192 5.592,15.192 C6.03,15.192 14.424,15.192 14.772,15.192 C15.48,15.192 15.942,15.192 16.434,15.156 C17.568,15.072 18.636,14.658 19.506,13.806 C21.426,11.91 21.456,8.838 19.578,6.912 M18.174,12.444 C17.802,12.816 17.136,13.236 16.044,13.272 C15.54,13.29 14.952,13.29 14.682,13.29 C14.388,13.29 11.796,13.29 8.82,13.29 C10.95,11.214 12.81,9.402 13.02,9.192 C13.212,9.006 13.65,8.586 14.022,8.25 C14.844,7.506 15.588,7.356 16.11,7.362 C16.932,7.368 17.676,7.704 18.21,8.25 C19.362,9.42 19.338,11.292 18.174,12.444" id="Fill-1" fill="#00A3FF"></path>
                    <path d="M7.794,6.456 C6.936,5.814 5.976,5.448 4.884,5.45385647 C3.528,5.45385647 2.304,6.018 1.434,6.912 C-0.444,8.838 -0.414,11.91 1.512,13.806 C2.28,14.568 3.216,14.982 4.212,15.12 L6.09,13.29 C5.784,13.29 5.352,13.284 4.962,13.272 C3.87,13.236 3.21,12.816 2.832,12.444 C1.68,11.292 1.65,9.42 2.79,8.25 C3.324,7.704 4.068,7.368 4.89,7.362 C5.406,7.362 6.102,7.512 6.894,8.166 C7.272,8.478 8.106,9.216 8.472,9.552 C8.49,9.57 8.514,9.57 8.538,9.552 L9.834,8.286 C9.858,8.262 9.858,8.232 9.834,8.214 C9.21,7.644 8.328,6.852 7.794,6.456" id="Fill-4" fill="#00C8DC"></path>
                    <path d="M16.638,4.356 C15.744,1.824 13.338,0.0119775356 10.512,0.0119775356 C7.26,0.006 4.572,2.4 4.086,5.52 C4.35,5.478 4.614,5.454 4.89,5.454 C5.274,5.454 5.634,5.496 5.988,5.58 C5.994,5.58 6,5.58 6.006,5.586 C6.444,3.48 8.304,1.914 10.506,1.914 C12.342,1.914 13.956,3.024 14.682,4.602 C14.694,4.626 14.712,4.638 14.73,4.632 C15.276,4.482 15.93,4.392 16.566,4.44 C16.632,4.446 16.656,4.41 16.638,4.356" id="Fill-6" fill="#006EFF"></path>
                </g>
                <g id="编组" transform="translate(10.500000, 9.938809)">
                    <path d="M2.64,0.024 L7.14,0.024 C8.586,0.024 9.756,1.194 9.756,2.64 C9.756,4.086 8.586,5.256 7.14,5.256 L2.64,5.256 C1.194,5.256 0.024,4.086 0.024,2.64 C0.024,1.194 1.194,0.024 2.64,0.024 Z" id="Rectangle-71-Copy-4" fill="#000000" opacity="0.7"></path>
                    <path d="M6.144,0.882 L4.686,4.074 L3.834,4.074 L5.292,0.882 L6.144,0.882 Z M2.898,1.464 L3.444,1.962 L2.712,2.79 L3.444,3.6 L2.898,4.074 L1.71,2.79 L2.898,1.464 Z M6.99,1.464 L8.178,2.79 L6.99,4.074 L6.444,3.6 L7.176,2.79 L6.444,1.962 L6.99,1.464 Z" id="形状结合" fill="#FFFFFF"></path>
                </g>
            </g>
        </g>
    </g>
</svg>